<?xml version="1.0"?>
<svg xmlns="http://www.w3.org/2000/svg" xmlns:xlink="http://www.w3.org/1999/xlink" version="1.1" viewBox="0 0 192 192" width="48px" height="48px"><g transform=""><g fill="none" fill-rule="none" stroke="none" stroke-width="1" stroke-linecap="butt" stroke-linejoin="miter" stroke-miterlimit="10" stroke-dasharray="" stroke-dashoffset="0" font-family="none" font-weight="none" font-size="none" text-anchor="none" style="mix-blend-mode: normal"><path d="M0,192v-192h192v192z" fill="#ffffff" fill-rule="nonzero"/><g><g id="Layer_1" fill="#000000" fill-rule="nonzero" font-family="-apple-system, BlinkMacSystemFont, &quot;San Francisco&quot;, HelveticaNeue-Light, &quot;Helvetica Neue Light&quot;, &quot;Helvetica Neue&quot;, &quot;Segoe UI&quot;, &quot;Fira Sans&quot;, Roboto, Oxygen, Ubuntu, &quot;Droid Sans&quot;, Arial, sans-serif" font-weight="400" font-size="16" text-anchor="start"/><g id="Layer_2" fill="#000000" fill-rule="nonzero" font-family="-apple-system, BlinkMacSystemFont, &quot;San Francisco&quot;, HelveticaNeue-Light, &quot;Helvetica Neue Light&quot;, &quot;Helvetica Neue&quot;, &quot;Segoe UI&quot;, &quot;Fira Sans&quot;, Roboto, Oxygen, Ubuntu, &quot;Droid Sans&quot;, Arial, sans-serif" font-weight="400" font-size="16" text-anchor="start"/><g id="Layer_3" fill-rule="evenodd"><path d="M152,20c-25.208,0 -86.792,0 -112,0c-4.42,0 -8,3.58 -8,8c0,12.188 0,12 0,12h128c0,0 0,0.188 0,-12c0,-4.42 -3.58,-8 -8,-8zM56,32c-2.208,0 -4,-1.792 -4,-4c0,-2.208 1.792,-4 4,-4c2.208,0 4,1.792 4,4c0,2.208 -1.792,4 -4,4zM136,32c-2.208,0 -4,-1.792 -4,-4c0,-2.208 1.792,-4 4,-4c2.208,0 4,1.792 4,4c0,2.208 -1.792,4 -4,4z" fill="#c7c7c7"/><path d="M176,44c0.412,-2.328 -5.636,-8 -8,-8c-28.444,0 -115.556,0 -144,0c-4,0 -8.412,5.672 -8,8c3.292,18.656 12,60 12,60h136c0,0 8.708,-41.344 12,-60z" fill="#1976d2"/><path d="M164,104h-136c0,0 -8.708,41.344 -12,60c0,4.584 3.168,8 8,8c28.444,0 115.556,0 144,0c2.364,0 8,-2 8,-8c-3.292,-18.656 -12,-60 -12,-60z" fill="#1e88e5"/><path d="M82.136,104c3.936,1.3 6.748,3.4 8.42,6.228c1.732,2.928 2.6,6.2 2.6,9.828c0,6.328 -2.076,11.304 -6.224,14.932c-4.148,3.624 -9.452,5.44 -15.908,5.44c-6.328,0 -11.568,-1.708 -15.72,-5.128c-4.152,-3.42 -6.144,-8.056 -5.988,-13.904l0.144,-0.288h8.968c0,3.656 1.12,6.568 3.364,8.728c2.24,2.164 5.32,3.244 9.232,3.244c3.976,0 7.092,-1.08 9.348,-3.244c2.256,-2.164 3.388,-5.36 3.388,-9.588c0,-4.292 -1,-7.456 -3.004,-9.492c-2.004,-2.036 -5.168,-3.052 -9.492,-3.052h-8.204v-3.704z" fill="#fafafa"/><rect x="31.637" y="26" transform="scale(4,4)" width="2.349" height="8.856" fill="#fafafa"/><path d="M58.908,88.144h-9.016l-0.096,-0.288c-0.16,-5.248 1.74,-9.708 5.7,-13.38c3.96,-3.672 9.136,-5.508 15.528,-5.508c6.424,0 11.544,1.708 15.36,5.128c3.816,3.42 5.724,8.292 5.724,14.62c0,2.864 -0.868,5.716 -2.6,8.564c-1.732,2.848 -4.332,5.016 -7.8,6.512l0.428,0.208h-19.08v-3.644h8.204c4.168,0 7.116,-1.04 8.848,-3.124c1.732,-2.084 2.6,-4.984 2.6,-8.704c0,-3.976 -0.984,-6.996 -2.956,-9.064c-1.972,-2.068 -4.88,-3.1 -8.728,-3.1c-3.656,0 -6.592,1.072 -8.8,3.22c-2.136,2.072 -3.24,4.808 -3.316,8.56z" fill="#e0e0e0"/><path d="M135.944,104h-9.396v-24.872l-14.216,0.192v-6.776l23.612,-2.576z" fill="#e0e0e0"/><path d="M24,36c-5.752,0 -8.412,5.672 -8,8c3.292,18.656 12,60 12,60" fill="#1976d2"/><path d="M164,104c0,0 8.708,-41.344 12,-60c0,-6.5 -5.636,-8 -8,-8" fill="#1976d2"/></g></g><path d="M96,192c-53.01934,0 -96,-42.98066 -96,-96v0c0,-53.01934 42.98066,-96 96,-96h0c53.01934,0 96,42.98066 96,96v0c0,53.01934 -42.98066,96 -96,96z" fill="none" fill-rule="nonzero"/><path d="M96,188.16c-50.89856,0 -92.16,-41.26144 -92.16,-92.16v0c0,-50.89856 41.26144,-92.16 92.16,-92.16h0c50.89856,0 92.16,41.26144 92.16,92.16v0c0,50.89856 -41.26144,92.16 -92.16,92.16z" fill="none" fill-rule="nonzero"/></g></g></svg>
